<svg width="17" height="14" viewBox="0 0 17 14" fill="none" xmlns="http://www.w3.org/2000/svg">
<path d="M16.3672 11.9531C16.5755 12.1094 16.6797 12.3177 16.6797 12.5781C16.7057 12.8125 16.6406 13.0208 16.4844 13.2031C16.3281 13.3854 16.1198 13.4766 15.8594 13.4766H8.35938H0.859375C0.598958 13.4766 0.390625 13.3854 0.234375 13.2031C0.078125 13.0208 0 12.8125 0 12.5781C0.0260417 12.3177 0.143229 12.1094 0.351562 11.9531L7.53906 6.60156V5.11719C7.53906 4.88281 7.61719 4.6875 7.77344 4.53125C7.92969 4.375 8.11198 4.29688 8.32031 4.29688C8.6849 4.29688 8.98438 4.17969 9.21875 3.94531C9.47917 3.6849 9.60938 3.38542 9.60938 3.04688C9.60938 2.70833 9.47917 2.42188 9.21875 2.1875C8.98438 1.92708 8.69792 1.79688 8.35938 1.79688C8.02083 1.79688 7.72135 1.92708 7.46094 2.1875C7.22656 2.42188 7.10938 2.70833 7.10938 3.04688H5.42969C5.42969 2.44792 5.59896 1.90104 5.9375 1.40625C6.27604 0.911458 6.71875 0.559896 7.26562 0.351562C7.8125 0.117188 8.39844 0.0651042 9.02344 0.195312C9.57031 0.325521 10.0391 0.598958 10.4297 1.01562C10.8464 1.43229 11.1068 1.91406 11.2109 2.46094C11.3151 2.98177 11.2891 3.47656 11.1328 3.94531C10.9766 4.38802 10.7292 4.77865 10.3906 5.11719C10.0521 5.45573 9.64844 5.6901 9.17969 5.82031V6.60156L16.3672 11.9531ZM3.35938 11.7969H13.3594L8.35938 8.04688L3.35938 11.7969Z" fill="white"/>
</svg>
